<?xml version="1.0" encoding="UTF-8"?>
<svg xmlns="http://www.w3.org/2000/svg" xmlns:xlink="http://www.w3.org/1999/xlink" width="89.97pt" height="102.45pt" viewBox="0 0 89.97 102.45" version="1.1">
<defs>
<clipPath id="clip1">
  <path d="M 15 41 L 89.96875 41 L 89.96875 102.449219 L 15 102.449219 Z M 15 41 "/>
</clipPath>
<clipPath id="clip2">
  <path d="M 0 42 L 56 42 L 56 102.449219 L 0 102.449219 Z M 0 42 "/>
</clipPath>
</defs>
<g id="surface1">
<path style=" stroke:none;fill-rule:nonzero;fill:rgb(16.499329%,62.399292%,85.499573%);fill-opacity:1;" d="M 48.304688 30.699219 L 49.863281 30.699219 C 64.023438 30.699219 74.382813 34.929688 81.035156 41.976563 C 81.746094 39.089844 82.128906 36.023438 82.128906 32.792969 L 82.128906 32.789063 C 82.128906 13.726563 69.980469 -0.00390625 45.515625 -0.00390625 L 11.777344 -0.00390625 C 35.328125 -0.00390625 47.433594 12.738281 48.304688 30.699219 "/>
<path style=" stroke:none;fill-rule:nonzero;fill:rgb(55.699158%,25.498962%,54.098511%);fill-opacity:1;" d="M 47.15625 42.632813 C 40.535156 35.191406 29.96875 30.699219 15.367188 30.699219 L 5.324219 30.699219 C 2.308594 30.699219 0 33.183594 0 36.023438 L 0 65.492188 L 11.785156 65.492188 C 31.75 65.492188 43.507813 56.292969 47.15625 42.632813 "/>
<path style=" stroke:none;fill-rule:nonzero;fill:rgb(9.399414%,33.299255%,65.098572%);fill-opacity:1;" d="M 49.867188 30.699219 L 48.308594 30.699219 C 48.34375 31.394531 48.394531 32.082031 48.394531 32.789063 L 48.394531 32.792969 C 48.394531 36.257813 47.976563 39.5625 47.15625 42.632813 C 48.21875 43.828125 49.144531 45.109375 50 46.453125 C 50.292969 46.90625 50.597656 47.351563 50.867188 47.824219 C 51.035156 48.121094 51.179688 48.4375 51.339844 48.742188 C 51.703125 49.425781 52.054688 50.117188 52.371094 50.832031 C 52.449219 51.015625 52.515625 51.207031 52.589844 51.390625 C 52.953125 52.257813 53.289063 53.144531 53.582031 54.054688 L 53.652344 54.296875 C 54.664063 57.503906 55.242188 60.957031 55.398438 64.609375 C 69.664063 61.988281 78.195313 53.527344 81.046875 41.984375 C 74.394531 34.933594 64.035156 30.699219 49.867188 30.699219 "/>
<path style=" stroke:none;fill-rule:nonzero;fill:rgb(88.198853%,32.899475%,61.999512%);fill-opacity:1;" d="M 5.324219 30.699219 L 15.367188 30.699219 C 29.96875 30.699219 40.535156 35.191406 47.15625 42.632813 C 47.976563 39.558594 48.394531 36.265625 48.394531 32.792969 L 48.394531 32.789063 C 48.394531 13.726563 36.246094 -0.00390625 11.785156 -0.00390625 L 4.636719 -0.00390625 C 2.074219 -0.00390625 0 2.070313 0 4.632813 L 0 36.023438 C 0 33.183594 2.308594 30.699219 5.324219 30.699219 "/>
<g clip-path="url(#clip1)" clip-rule="nonzero">
<path style=" stroke:none;fill-rule:nonzero;fill:rgb(94.099426%,35.299683%,45.498657%);fill-opacity:1;" d="M 81.046875 41.984375 C 78.195313 53.527344 69.664063 61.988281 55.398438 64.609375 C 55.425781 65.28125 55.472656 65.941406 55.472656 66.625 C 55.472656 87.332031 42.164063 102.4375 15.367188 102.4375 L 49.867188 102.4375 C 76.664063 102.4375 89.972656 87.332031 89.972656 66.625 C 89.972656 56.78125 86.976563 48.269531 81.046875 41.984375 "/>
</g>
<g clip-path="url(#clip2)" clip-rule="nonzero">
<path style=" stroke:none;fill-rule:nonzero;fill:rgb(81.599426%,81.599426%,27.49939%);fill-opacity:1;" d="M 47.15625 42.632813 C 43.507813 56.292969 31.75 65.492188 11.785156 65.492188 L 0 65.492188 L 0 97.125 C 0 99.964844 2.308594 102.449219 5.324219 102.449219 L 15.367188 102.449219 C 42.164063 102.449219 55.472656 87.332031 55.472656 66.625 C 55.472656 57.121094 52.6875 48.851563 47.15625 42.632813 "/>
</g>
</g>
</svg>
