<?xml version="1.0" encoding="UTF-8"?>
<svg xmlns="http://www.w3.org/2000/svg" xmlns:xlink="http://www.w3.org/1999/xlink" width="136.3pt" height="212.14pt" viewBox="0 0 136.3 212.14" version="1.1">
<defs>
<clipPath id="clip1">
  <path d="M 15 202 L 23 202 L 23 212.140625 L 15 212.140625 Z M 15 202 "/>
</clipPath>
<clipPath id="clip2">
  <path d="M 82 202 L 89 202 L 89 212.140625 L 82 212.140625 Z M 82 202 "/>
</clipPath>
<clipPath id="clip3">
  <path d="M 23 63 L 136.300781 63 L 136.300781 156 L 23 156 Z M 23 63 "/>
</clipPath>
</defs>
<g id="surface1">
<path style=" stroke:none;fill-rule:nonzero;fill:rgb(55.699158%,25.498962%,54.098511%);fill-opacity:1;" d="M 15.25 185.5 C 15.25 184.335938 14.828125 183.632813 14.226563 183.171875 C 13.523438 182.644531 12.535156 182.46875 11.050781 182.46875 L 5.054688 182.46875 L 5.054688 188.921875 L 10.980469 188.921875 C 12.359375 188.921875 13.558594 188.710938 14.335938 187.933594 C 14.898438 187.371094 15.25 186.558594 15.25 185.5 Z M 5.054688 179.007813 L 10.417969 179.007813 C 11.828125 179.007813 12.710938 178.585938 13.273438 178.019531 C 13.804688 177.457031 14.085938 176.679688 14.085938 175.761719 C 14.085938 174.632813 13.664063 173.859375 13.097656 173.433594 C 12.394531 172.871094 11.265625 172.730469 10.03125 172.730469 L 5.054688 172.730469 Z M 19.589844 185.714844 C 19.589844 187.652344 18.921875 189.3125 17.683594 190.476563 C 16.273438 191.816406 14.121094 192.523438 11.089844 192.523438 L 2.9375 192.523438 C 1.773438 192.523438 0.820313 191.570313 0.820313 190.40625 L 0.820313 171.246094 C 0.820313 170.082031 1.773438 169.128906 2.9375 169.128906 L 10.382813 169.128906 C 12.921875 169.128906 14.863281 169.589844 16.273438 170.71875 C 17.507813 171.742188 18.25 173.1875 18.25 175.058594 C 18.25 177.175781 17.367188 178.972656 15.886719 180.03125 C 18.25 180.949219 19.589844 182.960938 19.589844 185.714844 "/>
<path style=" stroke:none;fill-rule:nonzero;fill:rgb(55.699158%,25.498962%,54.098511%);fill-opacity:1;" d="M 24.777344 190.828125 C 23.648438 189.664063 23.121094 188.253906 23.121094 186.3125 L 23.121094 177.175781 C 23.121094 176.078125 24.003906 175.199219 25.09375 175.199219 C 26.191406 175.199219 27.105469 176.078125 27.105469 177.175781 L 27.105469 186.03125 C 27.105469 187.125 27.320313 187.863281 27.882813 188.324219 C 28.449219 188.816406 29.433594 189.027344 30.597656 189.027344 L 30.671875 189.027344 C 32.046875 189.027344 33.457031 188.78125 34.339844 188.359375 C 34.585938 188.253906 34.691406 188.078125 34.691406 187.757813 L 34.691406 177.175781 C 34.691406 176.078125 35.574219 175.199219 36.667969 175.199219 C 37.761719 175.199219 38.679688 176.078125 38.679688 177.175781 L 38.679688 190.652344 C 38.679688 191.746094 37.761719 192.628906 36.667969 192.628906 C 35.785156 192.628906 35.042969 192.0625 34.761719 191.289063 L 34.058594 191.640625 C 32.574219 192.382813 31.234375 192.804688 30.035156 192.804688 L 30 192.804688 C 27.8125 192.804688 25.941406 192.027344 24.777344 190.828125 "/>
<path style=" stroke:none;fill-rule:nonzero;fill:rgb(55.699158%,25.498962%,54.098511%);fill-opacity:1;" d="M 43.265625 190.652344 L 43.265625 177.175781 C 43.265625 176.078125 44.148438 175.199219 45.242188 175.199219 C 46.230469 175.199219 47.078125 175.902344 47.21875 176.855469 L 47.851563 176.503906 C 49.757813 175.445313 51.0625 175.023438 52.085938 175.023438 C 53.5 175.023438 54.238281 175.835938 54.238281 176.820313 C 54.238281 177.878906 53.605469 178.445313 52.265625 178.65625 C 50.464844 178.9375 48.839844 179.222656 47.570313 179.609375 C 47.289063 179.714844 47.253906 179.855469 47.253906 180.136719 L 47.253906 190.652344 C 47.253906 191.746094 46.335938 192.628906 45.242188 192.628906 C 44.148438 192.628906 43.265625 191.746094 43.265625 190.652344 "/>
<path style=" stroke:none;fill-rule:nonzero;fill:rgb(55.699158%,25.498962%,54.098511%);fill-opacity:1;" d="M 67.71875 182.253906 C 67.507813 180.171875 66.023438 178.515625 63.449219 178.515625 L 63.414063 178.515625 C 60.839844 178.515625 59.320313 180.136719 59.074219 182.253906 Z M 54.945313 183.914063 C 54.945313 178.480469 58.828125 175.023438 63.378906 175.023438 L 63.449219 175.023438 C 68.210938 175.023438 71.738281 178.65625 71.738281 183.277344 C 71.738281 184.617188 71.175781 185.148438 70.046875 185.148438 L 59.039063 185.148438 C 59.25 187.582031 60.769531 189.207031 63.90625 189.207031 C 65.214844 189.207031 66.800781 188.78125 68.105469 188.253906 C 68.742188 188.007813 69.234375 187.828125 69.695313 187.828125 C 70.507813 187.828125 71.175781 188.394531 71.175781 189.382813 C 71.175781 190.050781 70.789063 190.6875 69.835938 191.253906 C 68.175781 192.238281 65.882813 192.804688 63.660156 192.804688 L 63.554688 192.804688 C 58.296875 192.804688 54.945313 188.886719 54.945313 183.914063 "/>
<path style=" stroke:none;fill-rule:nonzero;fill:rgb(55.699158%,25.498962%,54.098511%);fill-opacity:1;" d="M 75.234375 190.652344 L 75.234375 177.175781 C 75.234375 176.078125 76.117188 175.199219 77.210938 175.199219 C 78.09375 175.199219 78.867188 175.796875 79.113281 176.574219 L 79.820313 176.1875 C 81.269531 175.410156 82.714844 175.023438 83.949219 175.023438 L 83.984375 175.023438 C 86.171875 175.023438 88.042969 175.796875 89.207031 176.996094 C 90.335938 178.160156 90.863281 179.574219 90.863281 181.515625 L 90.863281 190.652344 C 90.863281 191.746094 89.945313 192.628906 88.851563 192.628906 C 87.757813 192.628906 86.878906 191.746094 86.878906 190.652344 L 86.878906 181.796875 C 86.878906 180.703125 86.664063 179.960938 86.101563 179.503906 C 85.535156 179.007813 84.546875 178.796875 83.382813 178.796875 L 83.3125 178.796875 C 81.9375 178.796875 80.457031 179.042969 79.574219 179.46875 C 79.328125 179.574219 79.222656 179.75 79.222656 180.066406 L 79.222656 190.652344 C 79.222656 191.746094 78.304688 192.628906 77.210938 192.628906 C 76.117188 192.628906 75.234375 191.746094 75.234375 190.652344 "/>
<path style=" stroke:none;fill-rule:nonzero;fill:rgb(55.699158%,25.498962%,54.098511%);fill-opacity:1;" d="M 102.824219 189.0625 C 103.953125 189.0625 105.648438 188.640625 106.636719 188.148438 C 106.988281 187.972656 107.023438 187.863281 107.023438 187.546875 L 107.023438 180.210938 C 107.023438 179.925781 106.988281 179.75 106.636719 179.609375 C 105.402344 179.113281 103.953125 178.761719 102.824219 178.761719 L 102.753906 178.761719 C 99.757813 178.761719 98.238281 180.492188 98.238281 183.949219 C 98.238281 187.300781 99.507813 189.0625 102.753906 189.0625 Z M 94.144531 183.949219 C 94.144531 178.9375 97.390625 175.023438 101.945313 175.023438 C 103.390625 175.023438 104.625 175.410156 106.070313 176.152344 L 107.023438 176.644531 L 107.023438 169.378906 C 107.023438 168.28125 107.90625 167.402344 109 167.402344 C 110.09375 167.402344 111.011719 168.28125 111.011719 169.378906 L 111.011719 190.652344 C 111.011719 191.746094 110.09375 192.628906 109 192.628906 C 108.046875 192.628906 107.269531 191.992188 107.058594 191.109375 L 106.175781 191.605469 C 104.871094 192.347656 103.460938 192.804688 102.050781 192.804688 C 97.390625 192.804688 94.144531 189.242188 94.144531 183.949219 "/>
<path style=" stroke:none;fill-rule:nonzero;fill:rgb(55.699158%,25.498962%,54.098511%);fill-opacity:1;" d="M 123.253906 189.0625 C 126.429688 189.0625 127.769531 187.089844 127.769531 183.914063 C 127.769531 180.738281 126.429688 178.761719 123.253906 178.761719 L 123.113281 178.761719 C 119.9375 178.761719 118.597656 180.738281 118.597656 183.914063 C 118.597656 187.089844 119.9375 189.0625 123.113281 189.0625 Z M 114.503906 183.914063 C 114.503906 178.09375 118.667969 175.023438 123.113281 175.023438 L 123.253906 175.023438 C 127.699219 175.023438 131.863281 178.09375 131.863281 183.914063 C 131.863281 189.734375 127.699219 192.804688 123.253906 192.804688 L 123.113281 192.804688 C 118.667969 192.804688 114.503906 189.734375 114.503906 183.914063 "/>
<path style=" stroke:none;fill-rule:nonzero;fill:rgb(55.699158%,25.498962%,54.098511%);fill-opacity:1;" d="M 4.074219 208.285156 L 4.074219 200.8125 L 1.457031 200.8125 C 1.152344 200.8125 0.933594 200.589844 0.933594 200.289063 C 0.933594 199.984375 1.152344 199.753906 1.457031 199.753906 L 7.953125 199.753906 C 8.257813 199.753906 8.492188 199.984375 8.492188 200.289063 C 8.492188 200.589844 8.257813 200.8125 7.953125 200.8125 L 5.351563 200.8125 L 5.351563 208.285156 C 5.351563 208.644531 5.0625 208.917969 4.707031 208.917969 C 4.347656 208.917969 4.074219 208.644531 4.074219 208.285156 "/>
<path style=" stroke:none;fill-rule:nonzero;fill:rgb(55.699158%,25.498962%,54.098511%);fill-opacity:1;" d="M 11.28125 207.859375 C 12.589844 207.859375 13.320313 207.03125 13.320313 205.519531 C 13.320313 204.003906 12.589844 203.179688 11.28125 203.179688 L 11.242188 203.179688 C 9.933594 203.179688 9.203125 204.003906 9.203125 205.519531 C 9.203125 207.03125 9.933594 207.859375 11.242188 207.859375 Z M 7.953125 205.519531 C 7.953125 203.398438 9.4375 202.050781 11.242188 202.050781 L 11.28125 202.050781 C 13.085938 202.050781 14.574219 203.398438 14.574219 205.519531 C 14.574219 207.640625 13.085938 208.988281 11.28125 208.988281 L 11.242188 208.988281 C 9.4375 208.988281 7.953125 207.640625 7.953125 205.519531 "/>
<g clip-path="url(#clip1)" clip-rule="nonzero">
<path style=" stroke:none;fill-rule:nonzero;fill:rgb(55.699158%,25.498962%,54.098511%);fill-opacity:1;" d="M 20.667969 207.40625 C 20.792969 207.335938 20.820313 207.28125 20.820313 207.128906 L 20.820313 203.910156 C 20.820313 203.742188 20.792969 203.6875 20.65625 203.621094 C 20.117188 203.34375 19.46875 203.164063 18.90625 203.164063 C 17.640625 203.164063 16.898438 203.921875 16.898438 205.53125 C 16.898438 207.199219 17.640625 207.871094 18.835938 207.871094 C 19.445313 207.871094 20.199219 207.667969 20.667969 207.40625 Z M 16.855469 211.769531 C 16.582031 211.632813 16.46875 211.4375 16.46875 211.246094 C 16.46875 210.972656 16.664063 210.75 17.007813 210.75 C 17.117188 210.75 17.242188 210.777344 17.394531 210.820313 C 17.996094 210.984375 18.4375 211.054688 18.851563 211.054688 C 19.429688 211.054688 19.953125 210.929688 20.28125 210.625 C 20.683594 210.269531 20.820313 209.773438 20.820313 208.972656 L 20.820313 208.273438 L 20.433594 208.480469 C 19.746094 208.851563 19.238281 208.988281 18.632813 208.988281 C 16.855469 208.988281 15.644531 207.585938 15.644531 205.546875 C 15.644531 203.316406 17.171875 202.050781 18.6875 202.050781 C 19.292969 202.050781 19.828125 202.230469 20.476563 202.558594 L 20.820313 202.738281 L 20.820313 202.726563 C 20.820313 202.394531 21.09375 202.121094 21.425781 202.121094 C 21.757813 202.121094 22.03125 202.394531 22.03125 202.726563 L 22.03125 208.988281 C 22.03125 210.074219 21.757813 210.847656 21.21875 211.355469 C 20.65625 211.890625 19.800781 212.140625 18.863281 212.140625 C 18.09375 212.140625 17.324219 212.003906 16.855469 211.769531 "/>
</g>
<path style=" stroke:none;fill-rule:nonzero;fill:rgb(55.699158%,25.498962%,54.098511%);fill-opacity:1;" d="M 28.675781 204.898438 C 28.59375 203.855469 27.878906 203.136719 26.765625 203.136719 C 25.664063 203.136719 24.890625 203.785156 24.769531 204.898438 Z M 24.507813 208.09375 C 23.871094 207.460938 23.515625 206.550781 23.515625 205.519531 C 23.515625 203.441406 24.933594 202.050781 26.75 202.050781 C 28.582031 202.050781 29.875 203.46875 29.875 205.230469 C 29.875 205.65625 29.695313 205.835938 29.308594 205.835938 L 24.78125 205.835938 C 24.835938 206.453125 25.070313 206.980469 25.441406 207.351563 C 25.785156 207.695313 26.296875 207.886719 26.914063 207.886719 C 27.492188 207.886719 28.015625 207.734375 28.703125 207.363281 C 28.9375 207.238281 29.0625 207.183594 29.214844 207.183594 C 29.488281 207.183594 29.679688 207.363281 29.679688 207.640625 C 29.679688 207.859375 29.597656 208.023438 29.214844 208.300781 C 28.675781 208.683594 27.78125 208.988281 26.941406 208.988281 C 25.8125 208.988281 25.070313 208.65625 24.507813 208.09375 "/>
<path style=" stroke:none;fill-rule:nonzero;fill:rgb(55.699158%,25.498962%,54.098511%);fill-opacity:1;" d="M 32.171875 208.507813 C 31.785156 208.136719 31.621094 207.652344 31.621094 206.867188 L 31.621094 203.109375 L 30.78125 203.109375 C 30.519531 203.109375 30.296875 202.902344 30.296875 202.640625 C 30.296875 202.382813 30.519531 202.160156 30.78125 202.160156 L 31.621094 202.160156 L 31.621094 200.648438 C 31.621094 200.316406 31.894531 200.042969 32.226563 200.042969 C 32.554688 200.042969 32.832031 200.316406 32.832031 200.648438 L 32.832031 202.160156 L 34.800781 202.160156 C 35.0625 202.160156 35.269531 202.382813 35.269531 202.640625 C 35.269531 202.902344 35.0625 203.109375 34.800781 203.109375 L 32.832031 203.109375 L 32.832031 206.855469 C 32.832031 207.253906 32.886719 207.488281 33.039063 207.667969 C 33.175781 207.832031 33.410156 207.929688 33.753906 207.929688 C 34.070313 207.929688 34.429688 207.832031 34.867188 207.707031 C 35.019531 207.667969 35.101563 207.652344 35.183594 207.652344 C 35.445313 207.652344 35.652344 207.832031 35.652344 208.105469 C 35.652344 208.339844 35.515625 208.519531 35.183594 208.671875 C 34.773438 208.863281 34.207031 208.988281 33.671875 208.988281 C 33.023438 208.988281 32.488281 208.808594 32.171875 208.507813 "/>
<path style=" stroke:none;fill-rule:nonzero;fill:rgb(55.699158%,25.498962%,54.098511%);fill-opacity:1;" d="M 36.792969 208.3125 L 36.792969 199.683594 C 36.792969 199.351563 37.070313 199.078125 37.398438 199.078125 C 37.730469 199.078125 38.003906 199.351563 38.003906 199.683594 L 38.003906 202.683594 L 38.308594 202.53125 C 38.832031 202.269531 39.476563 202.050781 40.070313 202.050781 C 40.867188 202.050781 41.570313 202.3125 42.023438 202.753906 C 42.453125 203.164063 42.683594 203.730469 42.683594 204.636719 L 42.683594 208.3125 C 42.683594 208.644531 42.410156 208.917969 42.082031 208.917969 C 41.75 208.917969 41.472656 208.644531 41.472656 208.3125 L 41.472656 204.695313 C 41.472656 204.074219 41.363281 203.785156 41.128906 203.550781 C 40.867188 203.289063 40.402344 203.191406 39.863281 203.191406 L 39.851563 203.191406 C 39.257813 203.191406 38.542969 203.359375 38.128906 203.566406 C 38.019531 203.621094 38.003906 203.675781 38.003906 203.785156 L 38.003906 208.3125 C 38.003906 208.644531 37.730469 208.917969 37.398438 208.917969 C 37.070313 208.917969 36.792969 208.644531 36.792969 208.3125 "/>
<path style=" stroke:none;fill-rule:nonzero;fill:rgb(55.699158%,25.498962%,54.098511%);fill-opacity:1;" d="M 49.234375 204.898438 C 49.152344 203.855469 48.4375 203.136719 47.320313 203.136719 C 46.21875 203.136719 45.449219 203.785156 45.324219 204.898438 Z M 45.066406 208.09375 C 44.429688 207.460938 44.074219 206.550781 44.074219 205.519531 C 44.074219 203.441406 45.492188 202.050781 47.308594 202.050781 C 49.140625 202.050781 50.433594 203.46875 50.433594 205.230469 C 50.433594 205.65625 50.253906 205.835938 49.867188 205.835938 L 45.339844 205.835938 C 45.394531 206.453125 45.628906 206.980469 46 207.351563 C 46.34375 207.695313 46.855469 207.886719 47.472656 207.886719 C 48.050781 207.886719 48.574219 207.734375 49.261719 207.363281 C 49.496094 207.238281 49.621094 207.183594 49.773438 207.183594 C 50.046875 207.183594 50.238281 207.363281 50.238281 207.640625 C 50.238281 207.859375 50.15625 208.023438 49.773438 208.300781 C 49.234375 208.683594 48.339844 208.988281 47.5 208.988281 C 46.371094 208.988281 45.628906 208.65625 45.066406 208.09375 "/>
<path style=" stroke:none;fill-rule:nonzero;fill:rgb(55.699158%,25.498962%,54.098511%);fill-opacity:1;" d="M 51.972656 208.3125 L 51.972656 202.726563 C 51.972656 202.394531 52.246094 202.121094 52.578125 202.121094 C 52.90625 202.121094 53.183594 202.394531 53.183594 202.726563 L 53.183594 202.792969 L 53.484375 202.640625 C 54.339844 202.214844 54.847656 202.050781 55.246094 202.050781 C 55.703125 202.050781 55.910156 202.296875 55.910156 202.589844 C 55.910156 202.933594 55.6875 203.109375 55.300781 203.164063 C 54.394531 203.289063 53.761719 203.453125 53.308594 203.621094 C 53.199219 203.660156 53.183594 203.714844 53.183594 203.839844 L 53.183594 208.3125 C 53.183594 208.644531 52.90625 208.917969 52.578125 208.917969 C 52.246094 208.917969 51.972656 208.644531 51.972656 208.3125 "/>
<path style=" stroke:none;fill-rule:nonzero;fill:rgb(55.699158%,25.498962%,54.098511%);fill-opacity:1;" d="M 55.246094 210.558594 C 55.246094 210.476563 55.273438 210.40625 55.355469 210.226563 L 55.90625 209.113281 C 55.964844 209.003906 55.964844 208.933594 55.851563 208.824219 L 55.714844 208.699219 C 55.507813 208.519531 55.382813 208.328125 55.382813 208.066406 C 55.382813 207.613281 55.742188 207.335938 56.113281 207.335938 C 56.570313 207.335938 56.941406 207.679688 56.941406 208.355469 C 56.941406 208.851563 56.570313 209.660156 55.976563 210.503906 C 55.8125 210.734375 55.703125 210.820313 55.535156 210.820313 C 55.371094 210.820313 55.246094 210.710938 55.246094 210.558594 "/>
<path style=" stroke:none;fill-rule:nonzero;fill:rgb(55.699158%,25.498962%,54.098511%);fill-opacity:1;" d="M 62.003906 208.3125 L 62.003906 202.726563 C 62.003906 202.394531 62.277344 202.121094 62.609375 202.121094 C 62.941406 202.121094 63.214844 202.394531 63.214844 202.726563 L 63.214844 208.3125 C 63.214844 208.644531 62.941406 208.917969 62.609375 208.917969 C 62.277344 208.917969 62.003906 208.644531 62.003906 208.3125 Z M 61.851563 200.273438 C 61.851563 199.847656 62.183594 199.503906 62.609375 199.503906 C 63.035156 199.503906 63.367188 199.847656 63.367188 200.273438 C 63.367188 200.703125 63.035156 201.03125 62.609375 201.03125 C 62.183594 201.03125 61.851563 200.703125 61.851563 200.273438 "/>
<path style=" stroke:none;fill-rule:nonzero;fill:rgb(55.699158%,25.498962%,54.098511%);fill-opacity:1;" d="M 65.910156 208.507813 C 65.527344 208.136719 65.359375 207.652344 65.359375 206.867188 L 65.359375 203.109375 L 64.523438 203.109375 C 64.261719 203.109375 64.039063 202.902344 64.039063 202.640625 C 64.039063 202.382813 64.261719 202.160156 64.523438 202.160156 L 65.359375 202.160156 L 65.359375 200.648438 C 65.359375 200.316406 65.636719 200.042969 65.96875 200.042969 C 66.296875 200.042969 66.574219 200.316406 66.574219 200.648438 L 66.574219 202.160156 L 68.539063 202.160156 C 68.800781 202.160156 69.007813 202.382813 69.007813 202.640625 C 69.007813 202.902344 68.800781 203.109375 68.539063 203.109375 L 66.574219 203.109375 L 66.574219 206.855469 C 66.574219 207.253906 66.628906 207.488281 66.777344 207.667969 C 66.917969 207.832031 67.152344 207.929688 67.496094 207.929688 C 67.8125 207.929688 68.167969 207.832031 68.609375 207.707031 C 68.761719 207.667969 68.84375 207.652344 68.925781 207.652344 C 69.1875 207.652344 69.394531 207.832031 69.394531 208.105469 C 69.394531 208.339844 69.257813 208.519531 68.925781 208.671875 C 68.511719 208.863281 67.949219 208.988281 67.410156 208.988281 C 66.765625 208.988281 66.226563 208.808594 65.910156 208.507813 "/>
<path style=" stroke:none;fill-rule:nonzero;fill:rgb(55.699158%,25.498962%,54.098511%);fill-opacity:1;" d="M 70 202.933594 C 70 202.847656 70.027344 202.78125 70.109375 202.601563 L 70.660156 201.484375 C 70.714844 201.375 70.714844 201.308594 70.605469 201.195313 L 70.464844 201.074219 C 70.261719 200.894531 70.136719 200.703125 70.136719 200.441406 C 70.136719 199.984375 70.492188 199.710938 70.867188 199.710938 C 71.320313 199.710938 71.691406 200.054688 71.691406 200.730469 C 71.691406 201.226563 71.320313 202.035156 70.726563 202.878906 C 70.5625 203.109375 70.453125 203.191406 70.289063 203.191406 C 70.121094 203.191406 70 203.082031 70 202.933594 "/>
<path style=" stroke:none;fill-rule:nonzero;fill:rgb(55.699158%,25.498962%,54.098511%);fill-opacity:1;" d="M 72.503906 208.601563 C 72.253906 208.480469 72.117188 208.300781 72.117188 208.066406 C 72.117188 207.792969 72.308594 207.613281 72.597656 207.613281 C 72.722656 207.613281 72.832031 207.640625 73.011719 207.695313 C 73.644531 207.871094 74.074219 207.984375 74.707031 207.984375 C 75.503906 207.984375 76.164063 207.667969 76.164063 206.925781 C 76.164063 206.453125 75.875 206.261719 75.0625 206.015625 L 74.074219 205.710938 C 72.695313 205.285156 72.035156 204.816406 72.035156 203.839844 C 72.035156 203.261719 72.308594 202.808594 72.75 202.519531 C 73.246094 202.1875 73.976563 202.050781 74.761719 202.050781 C 75.460938 202.050781 76.152344 202.160156 76.550781 202.3125 C 76.878906 202.4375 76.992188 202.601563 76.992188 202.820313 C 76.992188 203.109375 76.769531 203.289063 76.46875 203.289063 C 76.386719 203.289063 76.273438 203.277344 76.136719 203.246094 C 75.519531 203.109375 75.0625 203.054688 74.609375 203.054688 C 73.726563 203.054688 73.175781 203.289063 73.175781 203.800781 C 73.175781 204.292969 73.660156 204.460938 74.320313 204.667969 L 75.269531 204.953125 C 75.945313 205.160156 76.480469 205.382813 76.796875 205.65625 C 77.140625 205.960938 77.320313 206.386719 77.320313 206.925781 C 77.320313 207.488281 77.113281 207.957031 76.757813 208.300781 C 76.289063 208.742188 75.519531 208.988281 74.582031 208.988281 C 73.742188 208.988281 72.929688 208.824219 72.503906 208.601563 "/>
<g clip-path="url(#clip2)" clip-rule="nonzero">
<path style=" stroke:none;fill-rule:nonzero;fill:rgb(55.699158%,25.498962%,54.098511%);fill-opacity:1;" d="M 87.160156 205.519531 C 87.160156 203.742188 86.335938 203.179688 85.246094 203.179688 C 84.628906 203.179688 83.882813 203.398438 83.414063 203.660156 C 83.320313 203.714844 83.265625 203.757813 83.265625 203.921875 L 83.265625 207.128906 C 83.265625 207.296875 83.320313 207.335938 83.414063 207.390625 C 83.882813 207.652344 84.597656 207.871094 85.21875 207.871094 C 86.320313 207.871094 87.160156 207.335938 87.160156 205.519531 Z M 82.054688 211.464844 L 82.054688 202.726563 C 82.054688 202.394531 82.328125 202.121094 82.660156 202.121094 C 82.988281 202.121094 83.265625 202.394531 83.265625 202.726563 L 83.265625 202.792969 L 83.621094 202.601563 C 84.308594 202.230469 84.890625 202.050781 85.46875 202.050781 C 87.132813 202.050781 88.414063 203.414063 88.414063 205.519531 C 88.414063 207.597656 87.214844 208.988281 85.4375 208.988281 C 84.847656 208.988281 84.296875 208.824219 83.648438 208.480469 L 83.265625 208.273438 L 83.265625 211.464844 C 83.265625 211.796875 82.988281 212.070313 82.660156 212.070313 C 82.328125 212.070313 82.054688 211.796875 82.054688 211.464844 "/>
</g>
<path style=" stroke:none;fill-rule:nonzero;fill:rgb(55.699158%,25.498962%,54.098511%);fill-opacity:1;" d="M 92.800781 207.859375 C 94.109375 207.859375 94.839844 207.03125 94.839844 205.519531 C 94.839844 204.003906 94.109375 203.179688 92.800781 203.179688 L 92.761719 203.179688 C 91.453125 203.179688 90.722656 204.003906 90.722656 205.519531 C 90.722656 207.03125 91.453125 207.859375 92.761719 207.859375 Z M 89.46875 205.519531 C 89.46875 203.398438 90.957031 202.050781 92.761719 202.050781 L 92.800781 202.050781 C 94.605469 202.050781 96.089844 203.398438 96.089844 205.519531 C 96.089844 207.640625 94.605469 208.988281 92.800781 208.988281 L 92.761719 208.988281 C 90.957031 208.988281 89.46875 207.640625 89.46875 205.519531 "/>
<path style=" stroke:none;fill-rule:nonzero;fill:rgb(55.699158%,25.498962%,54.098511%);fill-opacity:1;" d="M 97.589844 208.601563 C 97.339844 208.480469 97.203125 208.300781 97.203125 208.066406 C 97.203125 207.792969 97.394531 207.613281 97.683594 207.613281 C 97.808594 207.613281 97.917969 207.640625 98.097656 207.695313 C 98.730469 207.871094 99.15625 207.984375 99.792969 207.984375 C 100.589844 207.984375 101.25 207.667969 101.25 206.925781 C 101.25 206.453125 100.960938 206.261719 100.148438 206.015625 L 99.15625 205.710938 C 97.78125 205.285156 97.121094 204.816406 97.121094 203.839844 C 97.121094 203.261719 97.394531 202.808594 97.835938 202.519531 C 98.332031 202.1875 99.0625 202.050781 99.847656 202.050781 C 100.546875 202.050781 101.238281 202.160156 101.636719 202.3125 C 101.964844 202.4375 102.074219 202.601563 102.074219 202.820313 C 102.074219 203.109375 101.855469 203.289063 101.554688 203.289063 C 101.46875 203.289063 101.359375 203.277344 101.222656 203.246094 C 100.601563 203.109375 100.148438 203.054688 99.695313 203.054688 C 98.8125 203.054688 98.265625 203.289063 98.265625 203.800781 C 98.265625 204.292969 98.746094 204.460938 99.40625 204.667969 L 100.355469 204.953125 C 101.03125 205.160156 101.566406 205.382813 101.882813 205.65625 C 102.226563 205.960938 102.40625 206.386719 102.40625 206.925781 C 102.40625 207.488281 102.199219 207.957031 101.84375 208.300781 C 101.375 208.742188 100.601563 208.988281 99.667969 208.988281 C 98.828125 208.988281 98.015625 208.824219 97.589844 208.601563 "/>
<path style=" stroke:none;fill-rule:nonzero;fill:rgb(55.699158%,25.498962%,54.098511%);fill-opacity:1;" d="M 103.628906 208.601563 C 103.382813 208.480469 103.242188 208.300781 103.242188 208.066406 C 103.242188 207.792969 103.4375 207.613281 103.726563 207.613281 C 103.851563 207.613281 103.960938 207.640625 104.140625 207.695313 C 104.773438 207.871094 105.199219 207.984375 105.832031 207.984375 C 106.628906 207.984375 107.289063 207.667969 107.289063 206.925781 C 107.289063 206.453125 107.003906 206.261719 106.191406 206.015625 L 105.199219 205.710938 C 103.824219 205.285156 103.160156 204.816406 103.160156 203.839844 C 103.160156 203.261719 103.4375 202.808594 103.878906 202.519531 C 104.371094 202.1875 105.101563 202.050781 105.886719 202.050781 C 106.589844 202.050781 107.277344 202.160156 107.675781 202.3125 C 108.007813 202.4375 108.117188 202.601563 108.117188 202.820313 C 108.117188 203.109375 107.898438 203.289063 107.59375 203.289063 C 107.511719 203.289063 107.402344 203.277344 107.265625 203.246094 C 106.644531 203.109375 106.191406 203.054688 105.734375 203.054688 C 104.855469 203.054688 104.304688 203.289063 104.304688 203.800781 C 104.304688 204.292969 104.785156 204.460938 105.445313 204.667969 L 106.398438 204.953125 C 107.070313 205.160156 107.609375 205.382813 107.925781 205.65625 C 108.269531 205.960938 108.445313 206.386719 108.445313 206.925781 C 108.445313 207.488281 108.242188 207.957031 107.882813 208.300781 C 107.414063 208.742188 106.644531 208.988281 105.707031 208.988281 C 104.867188 208.988281 104.058594 208.824219 103.628906 208.601563 "/>
<path style=" stroke:none;fill-rule:nonzero;fill:rgb(55.699158%,25.498962%,54.098511%);fill-opacity:1;" d="M 109.835938 208.3125 L 109.835938 202.726563 C 109.835938 202.394531 110.109375 202.121094 110.441406 202.121094 C 110.773438 202.121094 111.046875 202.394531 111.046875 202.726563 L 111.046875 208.3125 C 111.046875 208.644531 110.773438 208.917969 110.441406 208.917969 C 110.109375 208.917969 109.835938 208.644531 109.835938 208.3125 Z M 109.683594 200.273438 C 109.683594 199.847656 110.015625 199.503906 110.441406 199.503906 C 110.867188 199.503906 111.199219 199.847656 111.199219 200.273438 C 111.199219 200.703125 110.867188 201.03125 110.441406 201.03125 C 110.015625 201.03125 109.683594 200.703125 109.683594 200.273438 "/>
<path style=" stroke:none;fill-rule:nonzero;fill:rgb(55.699158%,25.498962%,54.098511%);fill-opacity:1;" d="M 118.09375 205.519531 C 118.09375 203.742188 117.265625 203.179688 116.179688 203.179688 C 115.5625 203.179688 114.816406 203.398438 114.347656 203.660156 C 114.253906 203.714844 114.199219 203.757813 114.199219 203.921875 L 114.199219 207.128906 C 114.199219 207.296875 114.253906 207.335938 114.347656 207.390625 C 114.816406 207.652344 115.53125 207.871094 116.152344 207.871094 C 117.238281 207.871094 118.09375 207.335938 118.09375 205.519531 Z M 114.582031 208.480469 L 114.199219 208.273438 L 114.199219 208.3125 C 114.199219 208.644531 113.921875 208.917969 113.59375 208.917969 C 113.261719 208.917969 112.988281 208.644531 112.988281 208.3125 L 112.988281 199.683594 C 112.988281 199.351563 113.261719 199.078125 113.59375 199.078125 C 113.921875 199.078125 114.199219 199.351563 114.199219 199.683594 L 114.199219 202.792969 L 114.554688 202.601563 C 115.21875 202.242188 115.820313 202.050781 116.398438 202.050781 C 118.066406 202.050781 119.347656 203.414063 119.347656 205.519531 C 119.347656 207.597656 118.160156 208.988281 116.371094 208.988281 C 115.78125 208.988281 115.230469 208.824219 114.582031 208.480469 "/>
<path style=" stroke:none;fill-rule:nonzero;fill:rgb(55.699158%,25.498962%,54.098511%);fill-opacity:1;" d="M 120.859375 208.3125 L 120.859375 199.683594 C 120.859375 199.351563 121.132813 199.078125 121.464844 199.078125 C 121.792969 199.078125 122.070313 199.351563 122.070313 199.683594 L 122.070313 208.3125 C 122.070313 208.644531 121.792969 208.917969 121.464844 208.917969 C 121.132813 208.917969 120.859375 208.644531 120.859375 208.3125 "/>
<path style=" stroke:none;fill-rule:nonzero;fill:rgb(55.699158%,25.498962%,54.098511%);fill-opacity:1;" d="M 128.730469 204.898438 C 128.648438 203.855469 127.933594 203.136719 126.816406 203.136719 C 125.714844 203.136719 124.945313 203.785156 124.820313 204.898438 Z M 124.558594 208.09375 C 123.925781 207.460938 123.566406 206.550781 123.566406 205.519531 C 123.566406 203.441406 124.984375 202.050781 126.804688 202.050781 C 128.632813 202.050781 129.925781 203.46875 129.925781 205.230469 C 129.925781 205.65625 129.75 205.835938 129.363281 205.835938 L 124.835938 205.835938 C 124.890625 206.453125 125.125 206.980469 125.496094 207.351563 C 125.839844 207.695313 126.347656 207.886719 126.96875 207.886719 C 127.546875 207.886719 128.070313 207.734375 128.757813 207.363281 C 128.992188 207.238281 129.113281 207.183594 129.265625 207.183594 C 129.542969 207.183594 129.734375 207.363281 129.734375 207.640625 C 129.734375 207.859375 129.652344 208.023438 129.265625 208.300781 C 128.730469 208.683594 127.835938 208.988281 126.996094 208.988281 C 125.867188 208.988281 125.125 208.65625 124.558594 208.09375 "/>
<path style=" stroke:none;fill-rule:nonzero;fill:rgb(16.499329%,62.399292%,85.499573%);fill-opacity:1;" d="M 73.175781 46.515625 L 75.535156 46.515625 C 96.988281 46.515625 112.679688 52.925781 122.757813 63.597656 C 123.835938 59.222656 124.414063 54.578125 124.414063 49.683594 C 124.414063 20.804688 106.007813 0.00390625 68.953125 0.00390625 L 17.84375 0.00390625 C 53.519531 0.00390625 71.855469 19.308594 73.175781 46.515625 "/>
<path style=" stroke:none;fill-rule:nonzero;fill:rgb(55.699158%,25.498962%,54.098511%);fill-opacity:1;" d="M 71.433594 64.59375 C 61.40625 53.316406 45.398438 46.515625 23.277344 46.515625 L 8.0625 46.515625 C 3.496094 46.515625 0 50.277344 0 54.578125 L 0 99.226563 L 17.851563 99.226563 C 48.097656 99.226563 65.90625 85.285156 71.433594 64.59375 "/>
<path style=" stroke:none;fill-rule:nonzero;fill:rgb(9.399414%,33.299255%,65.098572%);fill-opacity:1;" d="M 75.542969 46.515625 L 73.183594 46.515625 C 73.234375 47.566406 73.3125 48.609375 73.3125 49.683594 L 73.3125 49.6875 C 73.3125 54.9375 72.675781 59.945313 71.4375 64.59375 C 73.042969 66.40625 74.449219 68.34375 75.746094 70.378906 C 76.1875 71.066406 76.652344 71.742188 77.058594 72.453125 C 77.3125 72.90625 77.53125 73.386719 77.773438 73.847656 C 78.320313 74.886719 78.855469 75.929688 79.332031 77.015625 C 79.453125 77.289063 79.550781 77.578125 79.667969 77.859375 C 80.21875 79.175781 80.722656 80.519531 81.171875 81.898438 C 81.207031 82.019531 81.238281 82.140625 81.277344 82.261719 C 82.804688 87.117188 83.683594 92.351563 83.921875 97.886719 C 105.53125 93.914063 118.457031 81.09375 122.777344 63.609375 C 112.695313 52.929688 97.003906 46.515625 75.542969 46.515625 "/>
<path style=" stroke:none;fill-rule:nonzero;fill:rgb(88.198853%,32.899475%,61.999512%);fill-opacity:1;" d="M 8.0625 46.515625 L 23.277344 46.515625 C 45.398438 46.515625 61.40625 53.316406 71.433594 64.59375 C 72.679688 59.9375 73.3125 54.945313 73.3125 49.6875 L 73.3125 49.683594 C 73.3125 20.804688 54.90625 0.00390625 17.851563 0.00390625 L 7.023438 0.00390625 C 3.144531 0.00390625 0 3.148438 0 7.027344 L 0 54.578125 C 0 50.277344 3.496094 46.515625 8.0625 46.515625 "/>
<g clip-path="url(#clip3)" clip-rule="nonzero">
<path style=" stroke:none;fill-rule:nonzero;fill:rgb(94.099426%,35.299683%,45.498657%);fill-opacity:1;" d="M 122.777344 63.609375 C 118.457031 81.09375 105.53125 93.914063 83.921875 97.886719 C 83.964844 98.898438 84.035156 99.902344 84.035156 100.9375 C 84.035156 132.304688 63.871094 155.1875 23.277344 155.1875 L 75.542969 155.1875 C 116.136719 155.1875 136.296875 132.304688 136.296875 100.9375 C 136.296875 86.027344 131.761719 73.128906 122.777344 63.609375 "/>
</g>
<path style=" stroke:none;fill-rule:nonzero;fill:rgb(81.599426%,81.599426%,27.49939%);fill-opacity:1;" d="M 71.433594 64.59375 C 65.90625 85.285156 48.097656 99.226563 17.851563 99.226563 L 0 99.226563 L 0 147.144531 C 0 151.441406 3.496094 155.207031 8.0625 155.207031 L 23.277344 155.207031 C 63.871094 155.207031 84.035156 132.304688 84.035156 100.9375 C 84.035156 86.539063 79.8125 74.011719 71.433594 64.59375 "/>
</g>
</svg>
